<?xml version="1.0" encoding="UTF-8"?>
<!--Generator: Apple Native CoreSVG 175.5-->
<!DOCTYPE svg
PUBLIC "-//W3C//DTD SVG 1.1//EN"
       "http://www.w3.org/Graphics/SVG/1.1/DTD/svg11.dtd">
<svg version="1.1" xmlns="http://www.w3.org/2000/svg" xmlns:xlink="http://www.w3.org/1999/xlink" width="40.2979" height="31.4624">
 <g>
  <rect height="31.4624" opacity="0" width="40.2979" x="0" y="0"/>
  <path d="M5.40039 28.728C3.74268 28.728 2.75146 27.7368 2.75146 26.062L2.75146 25.0195L7.99805 20.4395C8.75 19.7729 9.57031 19.4312 10.3223 19.4312C11.1597 19.4312 12.0312 19.7729 12.7832 20.4736L16.0474 23.4131L24.2163 16.167C25.0537 15.415 25.9937 15.0732 26.9678 15.0732C27.9077 15.0732 28.8818 15.4321 29.6851 16.1841L37.5464 23.4644L37.5464 26.0962C37.5464 27.7368 36.5381 28.728 34.9146 28.728ZM12.8174 16.167C10.4932 16.167 8.59619 14.27 8.59619 11.9458C8.59619 9.63867 10.4932 7.72461 12.8174 7.72461C15.1245 7.72461 17.0215 9.63867 17.0215 11.9458C17.0215 14.27 15.1245 16.167 12.8174 16.167ZM5.36621 31.4624L34.9316 31.4624C38.5205 31.4624 40.2979 29.7021 40.2979 26.1816L40.2979 5.29785C40.2979 1.77734 38.5205 0 34.9316 0L5.36621 0C1.79443 0 0 1.77734 0 5.29785L0 26.1816C0 29.7021 1.79443 31.4624 5.36621 31.4624Z" fill="#ffffff" fill-opacity="0.85"/>
 </g>
</svg>
