<?xml version="1.0" encoding="UTF-8"?>
<!--Generator: Apple Native CoreSVG 175.5-->
<!DOCTYPE svg
PUBLIC "-//W3C//DTD SVG 1.1//EN"
       "http://www.w3.org/Graphics/SVG/1.1/DTD/svg11.dtd">
<svg version="1.1" xmlns="http://www.w3.org/2000/svg" xmlns:xlink="http://www.w3.org/1999/xlink" width="40.2979" height="31.4624">
 <g>
  <rect height="31.4624" opacity="0" width="40.2979" x="0" y="0"/>
  <path d="M38.5376 25.2588L28.3862 15.7227C27.6172 15.0391 26.7285 14.6631 25.8057 14.6631C24.8657 14.6631 24.0283 14.9878 23.2422 15.6885L15.5176 22.5928L12.356 19.7388C11.6382 19.0894 10.8521 18.7646 10.0488 18.7646C9.27979 18.7646 8.56201 19.0723 7.84424 19.7217L1.33301 25.6006C1.43555 28.6938 2.7002 30.2661 5.24658 30.2661L33.8892 30.2661C36.9824 30.2661 38.5376 28.54 38.5376 25.2588ZM12.7319 15.8936C14.9365 15.8936 16.748 14.082 16.748 11.8604C16.748 9.65576 14.9365 7.82715 12.7319 7.82715C10.5103 7.82715 8.69873 9.65576 8.69873 11.8604C8.69873 14.082 10.5103 15.8936 12.7319 15.8936ZM5.36621 31.4624L34.9316 31.4624C38.5205 31.4624 40.2979 29.7021 40.2979 26.1816L40.2979 5.29785C40.2979 1.77734 38.5205 0 34.9316 0L5.36621 0C1.79443 0 0 1.77734 0 5.29785L0 26.1816C0 29.7021 1.79443 31.4624 5.36621 31.4624ZM5.40039 28.7109C3.69141 28.7109 2.75146 27.8052 2.75146 26.0278L2.75146 5.45166C2.75146 3.67432 3.69141 2.75146 5.40039 2.75146L34.8975 2.75146C36.5894 2.75146 37.5464 3.67432 37.5464 5.45166L37.5464 26.0278C37.5464 27.8052 36.5894 28.7109 34.8975 28.7109Z" fill="#ffffff" fill-opacity="0.85"/>
 </g>
</svg>
