<?xml version="1.0" encoding="UTF-8"?>
<!--Generator: Apple Native CoreSVG 175.5-->
<!DOCTYPE svg
PUBLIC "-//W3C//DTD SVG 1.1//EN"
       "http://www.w3.org/Graphics/SVG/1.1/DTD/svg11.dtd">
<svg version="1.1" xmlns="http://www.w3.org/2000/svg" xmlns:xlink="http://www.w3.org/1999/xlink" width="33.9404" height="32.4194">
 <g>
  <rect height="32.4194" opacity="0" width="33.9404" x="0" y="0"/>
  <path d="M0 11.3647C0 18.645 6.10107 25.8057 15.7397 31.958C16.0986 32.1802 16.6113 32.4194 16.9702 32.4194C17.3291 32.4194 17.8418 32.1802 18.2178 31.958C27.8394 25.8057 33.9404 18.645 33.9404 11.3647C33.9404 5.31494 29.7876 1.04248 24.2505 1.04248C21.0889 1.04248 18.5254 2.54639 16.9702 4.85352C15.4492 2.56348 12.8516 1.04248 9.68994 1.04248C4.15283 1.04248 0 5.31494 0 11.3647ZM2.75146 11.3647C2.75146 6.81885 5.69092 3.79395 9.65576 3.79395C12.8687 3.79395 14.7144 5.79346 15.8081 7.50244C16.2695 8.18604 16.5601 8.37402 16.9702 8.37402C17.3804 8.37402 17.6367 8.16895 18.1323 7.50244C19.3115 5.82764 21.0889 3.79395 24.2847 3.79395C28.2495 3.79395 31.189 6.81885 31.189 11.3647C31.189 17.7222 24.4727 24.5752 17.3291 29.3262C17.1582 29.4458 17.0386 29.5312 16.9702 29.5312C16.9019 29.5312 16.7822 29.4458 16.6284 29.3262C9.46777 24.5752 2.75146 17.7222 2.75146 11.3647Z" fill="#ffffff" fill-opacity="0.85"/>
 </g>
</svg>
